<mxfile host="app.diagrams.net" modified="2023-11-15T05:06:52.043Z" agent="Mozilla/5.0 (Windows NT 10.0; Win64; x64) AppleWebKit/537.36 (KHTML, like Gecko) Chrome/119.0.0.0 Safari/537.36" etag="aOv0DjgJ5516sspNmJaJ" version="22.1.1" type="github">
  <diagram id="R2lEEEUBdFMjLlhIrx00" name="Page-1">
    <mxGraphModel dx="1247" dy="659" grid="1" gridSize="10" guides="1" tooltips="1" connect="1" arrows="1" fold="1" page="1" pageScale="1" pageWidth="850" pageHeight="1100" math="0" shadow="0" extFonts="Permanent Marker^https://fonts.googleapis.com/css?family=Permanent+Marker">
      <root>
        <mxCell id="0" />
        <mxCell id="1" parent="0" />
        <mxCell id="C-vyLk0tnHw3VtMMgP7b-1" value="" style="edgeStyle=entityRelationEdgeStyle;endArrow=ERzeroToMany;startArrow=ERone;endFill=1;startFill=0;exitX=1.004;exitY=0.302;exitDx=0;exitDy=0;exitPerimeter=0;entryX=-0.007;entryY=0.716;entryDx=0;entryDy=0;entryPerimeter=0;" parent="1" source="C-vyLk0tnHw3VtMMgP7b-27" target="C-vyLk0tnHw3VtMMgP7b-6" edge="1">
          <mxGeometry width="100" height="100" relative="1" as="geometry">
            <mxPoint x="450" y="270" as="sourcePoint" />
            <mxPoint x="449.9999999999998" y="199" as="targetPoint" />
          </mxGeometry>
        </mxCell>
        <mxCell id="C-vyLk0tnHw3VtMMgP7b-2" value="請求情報契約詳細テーブル" style="shape=table;startSize=30;container=1;collapsible=1;childLayout=tableLayout;fixedRows=1;rowLines=0;fontStyle=1;align=center;resizeLast=1;" parent="1" vertex="1">
          <mxGeometry x="570" y="190" width="250" height="130" as="geometry" />
        </mxCell>
        <mxCell id="C-vyLk0tnHw3VtMMgP7b-3" value="" style="shape=partialRectangle;collapsible=0;dropTarget=0;pointerEvents=0;fillColor=none;points=[[0,0.5],[1,0.5]];portConstraint=eastwest;top=0;left=0;right=0;bottom=1;" parent="C-vyLk0tnHw3VtMMgP7b-2" vertex="1">
          <mxGeometry y="30" width="250" height="30" as="geometry" />
        </mxCell>
        <mxCell id="C-vyLk0tnHw3VtMMgP7b-4" value="PK" style="shape=partialRectangle;overflow=hidden;connectable=0;fillColor=none;top=0;left=0;bottom=0;right=0;fontStyle=1;" parent="C-vyLk0tnHw3VtMMgP7b-3" vertex="1">
          <mxGeometry width="30" height="30" as="geometry">
            <mxRectangle width="30" height="30" as="alternateBounds" />
          </mxGeometry>
        </mxCell>
        <mxCell id="C-vyLk0tnHw3VtMMgP7b-5" value="order_id int NOT NULL " style="shape=partialRectangle;overflow=hidden;connectable=0;fillColor=none;top=0;left=0;bottom=0;right=0;align=left;spacingLeft=6;fontStyle=5;" parent="C-vyLk0tnHw3VtMMgP7b-3" vertex="1">
          <mxGeometry x="30" width="220" height="30" as="geometry">
            <mxRectangle width="220" height="30" as="alternateBounds" />
          </mxGeometry>
        </mxCell>
        <mxCell id="C-vyLk0tnHw3VtMMgP7b-6" value="" style="shape=partialRectangle;collapsible=0;dropTarget=0;pointerEvents=0;fillColor=none;points=[[0,0.5],[1,0.5]];portConstraint=eastwest;top=0;left=0;right=0;bottom=0;" parent="C-vyLk0tnHw3VtMMgP7b-2" vertex="1">
          <mxGeometry y="60" width="250" height="30" as="geometry" />
        </mxCell>
        <mxCell id="C-vyLk0tnHw3VtMMgP7b-7" value="FK1" style="shape=partialRectangle;overflow=hidden;connectable=0;fillColor=none;top=0;left=0;bottom=0;right=0;" parent="C-vyLk0tnHw3VtMMgP7b-6" vertex="1">
          <mxGeometry width="30" height="30" as="geometry">
            <mxRectangle width="30" height="30" as="alternateBounds" />
          </mxGeometry>
        </mxCell>
        <mxCell id="C-vyLk0tnHw3VtMMgP7b-8" value="customer_id int NOT NULL" style="shape=partialRectangle;overflow=hidden;connectable=0;fillColor=none;top=0;left=0;bottom=0;right=0;align=left;spacingLeft=6;" parent="C-vyLk0tnHw3VtMMgP7b-6" vertex="1">
          <mxGeometry x="30" width="220" height="30" as="geometry">
            <mxRectangle width="220" height="30" as="alternateBounds" />
          </mxGeometry>
        </mxCell>
        <mxCell id="C-vyLk0tnHw3VtMMgP7b-9" value="" style="shape=partialRectangle;collapsible=0;dropTarget=0;pointerEvents=0;fillColor=none;points=[[0,0.5],[1,0.5]];portConstraint=eastwest;top=0;left=0;right=0;bottom=0;" parent="C-vyLk0tnHw3VtMMgP7b-2" vertex="1">
          <mxGeometry y="90" width="250" height="30" as="geometry" />
        </mxCell>
        <mxCell id="C-vyLk0tnHw3VtMMgP7b-10" value="" style="shape=partialRectangle;overflow=hidden;connectable=0;fillColor=none;top=0;left=0;bottom=0;right=0;" parent="C-vyLk0tnHw3VtMMgP7b-9" vertex="1">
          <mxGeometry width="30" height="30" as="geometry">
            <mxRectangle width="30" height="30" as="alternateBounds" />
          </mxGeometry>
        </mxCell>
        <mxCell id="C-vyLk0tnHw3VtMMgP7b-11" value="order_date date NOT NULL" style="shape=partialRectangle;overflow=hidden;connectable=0;fillColor=none;top=0;left=0;bottom=0;right=0;align=left;spacingLeft=6;" parent="C-vyLk0tnHw3VtMMgP7b-9" vertex="1">
          <mxGeometry x="30" width="220" height="30" as="geometry">
            <mxRectangle width="220" height="30" as="alternateBounds" />
          </mxGeometry>
        </mxCell>
        <mxCell id="C-vyLk0tnHw3VtMMgP7b-23" value="請求情報契約テーブル" style="shape=table;startSize=20;container=1;collapsible=1;childLayout=tableLayout;fixedRows=1;rowLines=0;fontStyle=1;align=center;resizeLast=1;" parent="1" vertex="1">
          <mxGeometry x="260" y="130" width="250" height="190" as="geometry" />
        </mxCell>
        <mxCell id="C-vyLk0tnHw3VtMMgP7b-24" value="" style="shape=partialRectangle;collapsible=0;dropTarget=0;pointerEvents=0;fillColor=none;points=[[0,0.5],[1,0.5]];portConstraint=eastwest;top=0;left=0;right=0;bottom=1;" parent="C-vyLk0tnHw3VtMMgP7b-23" vertex="1">
          <mxGeometry y="20" width="250" height="60" as="geometry" />
        </mxCell>
        <mxCell id="C-vyLk0tnHw3VtMMgP7b-25" value="PK" style="shape=partialRectangle;overflow=hidden;connectable=0;fillColor=none;top=0;left=0;bottom=0;right=0;fontStyle=1;" parent="C-vyLk0tnHw3VtMMgP7b-24" vertex="1">
          <mxGeometry width="30" height="60" as="geometry">
            <mxRectangle width="30" height="60" as="alternateBounds" />
          </mxGeometry>
        </mxCell>
        <mxCell id="C-vyLk0tnHw3VtMMgP7b-26" value="LTCNR_NO_CAR&#xa;RID&#xa;SERVICE_KBN" style="shape=partialRectangle;overflow=hidden;connectable=0;fillColor=none;top=0;left=0;bottom=0;right=0;align=left;spacingLeft=6;fontStyle=5;" parent="C-vyLk0tnHw3VtMMgP7b-24" vertex="1">
          <mxGeometry x="30" width="220" height="60" as="geometry">
            <mxRectangle width="220" height="60" as="alternateBounds" />
          </mxGeometry>
        </mxCell>
        <mxCell id="C-vyLk0tnHw3VtMMgP7b-27" value="" style="shape=partialRectangle;collapsible=0;dropTarget=0;pointerEvents=0;fillColor=none;points=[[0,0.5],[1,0.5]];portConstraint=eastwest;top=0;left=0;right=0;bottom=0;" parent="C-vyLk0tnHw3VtMMgP7b-23" vertex="1">
          <mxGeometry y="80" width="250" height="30" as="geometry" />
        </mxCell>
        <mxCell id="C-vyLk0tnHw3VtMMgP7b-28" value="" style="shape=partialRectangle;overflow=hidden;connectable=0;fillColor=none;top=0;left=0;bottom=0;right=0;" parent="C-vyLk0tnHw3VtMMgP7b-27" vertex="1">
          <mxGeometry width="30" height="30" as="geometry">
            <mxRectangle width="30" height="30" as="alternateBounds" />
          </mxGeometry>
        </mxCell>
        <mxCell id="C-vyLk0tnHw3VtMMgP7b-29" value="customer_name char(50) NOT NULL" style="shape=partialRectangle;overflow=hidden;connectable=0;fillColor=none;top=0;left=0;bottom=0;right=0;align=left;spacingLeft=6;" parent="C-vyLk0tnHw3VtMMgP7b-27" vertex="1">
          <mxGeometry x="30" width="220" height="30" as="geometry">
            <mxRectangle width="220" height="30" as="alternateBounds" />
          </mxGeometry>
        </mxCell>
        <mxCell id="VBK_a4WL5h0ydlxh3Xsy-3" value="テレマ情報" style="shape=table;startSize=30;container=1;collapsible=1;childLayout=tableLayout;fixedRows=1;rowLines=0;fontStyle=1;align=center;resizeLast=1;html=1;" vertex="1" parent="1">
          <mxGeometry x="30" y="130" width="200" height="190" as="geometry" />
        </mxCell>
        <mxCell id="VBK_a4WL5h0ydlxh3Xsy-4" value="" style="shape=tableRow;horizontal=0;startSize=0;swimlaneHead=0;swimlaneBody=0;fillColor=none;collapsible=0;dropTarget=0;points=[[0,0.5],[1,0.5]];portConstraint=eastwest;top=0;left=0;right=0;bottom=1;" vertex="1" parent="VBK_a4WL5h0ydlxh3Xsy-3">
          <mxGeometry y="30" width="200" height="60" as="geometry" />
        </mxCell>
        <mxCell id="VBK_a4WL5h0ydlxh3Xsy-5" value="PK" style="shape=partialRectangle;connectable=0;fillColor=none;top=0;left=0;bottom=0;right=0;fontStyle=1;overflow=hidden;whiteSpace=wrap;html=1;" vertex="1" parent="VBK_a4WL5h0ydlxh3Xsy-4">
          <mxGeometry width="30" height="60" as="geometry">
            <mxRectangle width="30" height="60" as="alternateBounds" />
          </mxGeometry>
        </mxCell>
        <mxCell id="VBK_a4WL5h0ydlxh3Xsy-6" value="LTCNR_NO_CAR&lt;br style=&quot;border-color: var(--border-color); padding: 0px; margin: 0px;&quot;&gt;&lt;span style=&quot;&quot;&gt;RID&lt;/span&gt;&lt;br style=&quot;border-color: var(--border-color); padding: 0px; margin: 0px;&quot;&gt;&lt;span style=&quot;&quot;&gt;SERVICE_KBN&lt;/span&gt;" style="shape=partialRectangle;connectable=0;fillColor=none;top=0;left=0;bottom=0;right=0;align=left;spacingLeft=6;fontStyle=5;overflow=hidden;whiteSpace=wrap;html=1;" vertex="1" parent="VBK_a4WL5h0ydlxh3Xsy-4">
          <mxGeometry x="30" width="170" height="60" as="geometry">
            <mxRectangle width="170" height="60" as="alternateBounds" />
          </mxGeometry>
        </mxCell>
        <mxCell id="VBK_a4WL5h0ydlxh3Xsy-7" value="" style="shape=tableRow;horizontal=0;startSize=0;swimlaneHead=0;swimlaneBody=0;fillColor=none;collapsible=0;dropTarget=0;points=[[0,0.5],[1,0.5]];portConstraint=eastwest;top=0;left=0;right=0;bottom=0;" vertex="1" parent="VBK_a4WL5h0ydlxh3Xsy-3">
          <mxGeometry y="90" width="200" height="30" as="geometry" />
        </mxCell>
        <mxCell id="VBK_a4WL5h0ydlxh3Xsy-8" value="" style="shape=partialRectangle;connectable=0;fillColor=none;top=0;left=0;bottom=0;right=0;editable=1;overflow=hidden;whiteSpace=wrap;html=1;" vertex="1" parent="VBK_a4WL5h0ydlxh3Xsy-7">
          <mxGeometry width="30" height="30" as="geometry">
            <mxRectangle width="30" height="30" as="alternateBounds" />
          </mxGeometry>
        </mxCell>
        <mxCell id="VBK_a4WL5h0ydlxh3Xsy-9" value="Row 1" style="shape=partialRectangle;connectable=0;fillColor=none;top=0;left=0;bottom=0;right=0;align=left;spacingLeft=6;overflow=hidden;whiteSpace=wrap;html=1;" vertex="1" parent="VBK_a4WL5h0ydlxh3Xsy-7">
          <mxGeometry x="30" width="170" height="30" as="geometry">
            <mxRectangle width="170" height="30" as="alternateBounds" />
          </mxGeometry>
        </mxCell>
        <mxCell id="VBK_a4WL5h0ydlxh3Xsy-10" value="" style="shape=tableRow;horizontal=0;startSize=0;swimlaneHead=0;swimlaneBody=0;fillColor=none;collapsible=0;dropTarget=0;points=[[0,0.5],[1,0.5]];portConstraint=eastwest;top=0;left=0;right=0;bottom=0;" vertex="1" parent="VBK_a4WL5h0ydlxh3Xsy-3">
          <mxGeometry y="120" width="200" height="30" as="geometry" />
        </mxCell>
        <mxCell id="VBK_a4WL5h0ydlxh3Xsy-11" value="" style="shape=partialRectangle;connectable=0;fillColor=none;top=0;left=0;bottom=0;right=0;editable=1;overflow=hidden;whiteSpace=wrap;html=1;" vertex="1" parent="VBK_a4WL5h0ydlxh3Xsy-10">
          <mxGeometry width="30" height="30" as="geometry">
            <mxRectangle width="30" height="30" as="alternateBounds" />
          </mxGeometry>
        </mxCell>
        <mxCell id="VBK_a4WL5h0ydlxh3Xsy-12" value="Row 2" style="shape=partialRectangle;connectable=0;fillColor=none;top=0;left=0;bottom=0;right=0;align=left;spacingLeft=6;overflow=hidden;whiteSpace=wrap;html=1;" vertex="1" parent="VBK_a4WL5h0ydlxh3Xsy-10">
          <mxGeometry x="30" width="170" height="30" as="geometry">
            <mxRectangle width="170" height="30" as="alternateBounds" />
          </mxGeometry>
        </mxCell>
        <mxCell id="VBK_a4WL5h0ydlxh3Xsy-13" value="" style="shape=tableRow;horizontal=0;startSize=0;swimlaneHead=0;swimlaneBody=0;fillColor=none;collapsible=0;dropTarget=0;points=[[0,0.5],[1,0.5]];portConstraint=eastwest;top=0;left=0;right=0;bottom=0;" vertex="1" parent="VBK_a4WL5h0ydlxh3Xsy-3">
          <mxGeometry y="150" width="200" height="30" as="geometry" />
        </mxCell>
        <mxCell id="VBK_a4WL5h0ydlxh3Xsy-14" value="" style="shape=partialRectangle;connectable=0;fillColor=none;top=0;left=0;bottom=0;right=0;editable=1;overflow=hidden;whiteSpace=wrap;html=1;" vertex="1" parent="VBK_a4WL5h0ydlxh3Xsy-13">
          <mxGeometry width="30" height="30" as="geometry">
            <mxRectangle width="30" height="30" as="alternateBounds" />
          </mxGeometry>
        </mxCell>
        <mxCell id="VBK_a4WL5h0ydlxh3Xsy-15" value="Row 3" style="shape=partialRectangle;connectable=0;fillColor=none;top=0;left=0;bottom=0;right=0;align=left;spacingLeft=6;overflow=hidden;whiteSpace=wrap;html=1;" vertex="1" parent="VBK_a4WL5h0ydlxh3Xsy-13">
          <mxGeometry x="30" width="170" height="30" as="geometry">
            <mxRectangle width="170" height="30" as="alternateBounds" />
          </mxGeometry>
        </mxCell>
      </root>
    </mxGraphModel>
  </diagram>
</mxfile>
